<?xml version="1.0" encoding="UTF-8" standalone="no"?>
<!-- Created with Inkscape (http://www.inkscape.org/) -->

<svg
   width="128"
   height="128"
   viewBox="0 0 128000000 128000000"
   version="1.1"
   id="svg1"
   xml:space="preserve"
   inkscape:version="1.3 (0e150ed, 2023-07-21)"
   sodipodi:docname="icon.svg"
   inkscape:export-filename="icon.png"
   inkscape:export-xdpi="117.55307"
   inkscape:export-ydpi="117.55307"
   xmlns:inkscape="http://www.inkscape.org/namespaces/inkscape"
   xmlns:sodipodi="http://sodipodi.sourceforge.net/DTD/sodipodi-0.dtd"
   xmlns="http://www.w3.org/2000/svg"
   xmlns:svg="http://www.w3.org/2000/svg"><sodipodi:namedview
     id="namedview1"
     pagecolor="#ffffff"
     bordercolor="#999999"
     borderopacity="1"
     inkscape:showpageshadow="0"
     inkscape:pageopacity="0"
     inkscape:pagecheckerboard="0"
     inkscape:deskcolor="#d1d1d1"
     inkscape:document-units="px"
     showgrid="true"
     showguides="true"
     inkscape:zoom="2.5437154"
     inkscape:cx="-14.34909"
     inkscape:cy="140.54245"
     inkscape:window-width="2112"
     inkscape:window-height="1114"
     inkscape:window-x="2103"
     inkscape:window-y="25"
     inkscape:window-maximized="0"
     inkscape:current-layer="g19"><inkscape:grid
       id="grid3"
       units="px"
       originx="0"
       originy="0"
       spacingx="1000000"
       spacingy="1000000"
       empcolor="#0099e5"
       empopacity="0.30196078"
       color="#0099e5"
       opacity="0.14901961"
       empspacing="5"
       dotted="false"
       gridanglex="30"
       gridanglez="30"
       visible="true" /><sodipodi:guide
       position="-1.013344e+08,1.1814257e+08"
       orientation="0,-1"
       id="guide4"
       inkscape:locked="false" /><sodipodi:guide
       position="-99362915,13259492"
       orientation="0,-1"
       id="guide5"
       inkscape:locked="false" /><sodipodi:guide
       position="-1.9793723e+08,2.1040813e+08"
       orientation="0.70710678,-0.70710678"
       id="guide13"
       inkscape:locked="false" /><sodipodi:guide
       position="-82013834,10105113"
       orientation="0,-1"
       id="guide14"
       inkscape:locked="false" /><sodipodi:guide
       position="10251729,1.4495478e+08"
       orientation="1,0"
       id="guide15"
       inkscape:locked="false" /><sodipodi:guide
       position="1.1750059e+08,1.3115438e+08"
       orientation="1,0"
       id="guide16"
       inkscape:locked="false" /></sodipodi:namedview><defs
     id="defs1"><linearGradient
       id="swatch21"
       inkscape:swatch="solid"><stop
         style="stop-color:#28220b;stop-opacity:1;"
         offset="0"
         id="stop21" /></linearGradient><linearGradient
       id="swatch20"><stop
         style="stop-color:#38b2ac;stop-opacity:1;"
         offset="0"
         id="stop20" /></linearGradient><rect
       x="-115.5291"
       y="26.812215"
       width="76.88797"
       height="54.413025"
       id="rect16" /><inkscape:path-effect
       effect="fillet_chamfer"
       id="path-effect7"
       is_visible="true"
       lpeversion="1"
       nodesatellites_param="F,0,0,1,0,0,0,1 @ F,0,0,1,0,0,0,1 @ F,0,0,1,0,0,0,1 @ F,0,0,1,0,0,0,1 @ F,0,0,1,0,0,0,1"
       radius="0"
       unit="px"
       method="auto"
       mode="F"
       chamfer_steps="1"
       flexible="false"
       use_knot_distance="true"
       apply_no_radius="true"
       apply_with_radius="true"
       only_selected="false"
       hide_knots="false" /></defs><g
     id="g3"
     transform="matrix(535879.25,0,0,511235.67,7309684.6,12829845)"
     inkscape:label="vscode"
     style="display:inline"
     sodipodi:insensitive="true"><path
       fill="#007acc"
       d="M 37.061625,144.10872 49.563511,156.92402 173.877,44.921382 173.80224,-4.9967062 Z"
       id="path7"
       style="stroke-width:0.809297"
       sodipodi:nodetypes="ccccc" /><path
       fill="#007acc"
       d="m 33.537656,54.347773 12.232542,-13.09777 127.347792,109.137057 0.22697,49.90795 z"
       id="path7-0"
       style="stroke-width:0.809297"
       sodipodi:nodetypes="ccccc" /><path
       fill="#1f9cf0"
       d="m 173.44941,-4.2493724 28.19528,27.6536724 0.055,149.51409 -28.90081,28.1588 z"
       id="path2"
       style="stroke-width:0.525188"
       sodipodi:nodetypes="ccccc" /></g><g
     id="g8"
     transform="matrix(1000000,0,0,1000000,-209816690,-31988609)"
     style="display:inline"
     inkscape:label="cog"
     sodipodi:insensitive="true"><g
       style="opacity:0.9;fill:currentColor"
       id="g12"
       transform="matrix(2.1693453,0,0,2.2536631,215.13868,97.970784)"><path
         d="m 19.14,12.94 c 0.04,-0.31 0.06,-0.63 0.06,-0.94 0,-0.31 -0.02,-0.63 -0.06,-0.94 L 21.17,9.48 C 21.35,9.34 21.4,9.08 21.29,8.87 L 19.37,5.55 C 19.26,5.34 19.01,5.25 18.79,5.33 L 16.4,6.29 C 15.9,5.91 15.36,5.59 14.77,5.35 L 14.5,2.5 C 14.48,2.22 14.24,2 13.95,2 h -3.9 C 9.76,2 9.52,2.22 9.5,2.5 L 9.14,4.85 C 8.55,5.09 8,5.41 7.51,5.79 L 5.12,4.83 C 4.9,4.75 4.65,4.84 4.54,5.05 L 2.62,8.37 C 2.5,8.58 2.55,8.84 2.74,8.98 l 2.03,1.58 C 4.72,11.37 4.7,11.69 4.7,12 c 0,0.31 0.02,0.63 0.06,0.94 l -2.02,1.58 c -0.18,0.14 -0.23,0.4 -0.12,0.61 l 1.92,3.32 c 0.11,0.21 0.36,0.3 0.58,0.22 l 2.39,-0.96 c 0.5,0.38 1.04,0.7 1.63,0.94 L 9.5,21 c 0.02,0.28 0.26,0.5 0.55,0.5 h 3.9 c 0.29,0 0.53,-0.22 0.55,-0.5 l 0.36,-2.35 c 0.59,-0.24 1.14,-0.56 1.63,-0.94 l 2.39,0.96 c 0.22,0.08 0.47,-0.01 0.58,-0.22 l 1.92,-3.32 c 0.11,-0.21 0.06,-0.47 -0.12,-0.61 z M 12,15.6 c -1.99,0 -3.6,-1.61 -3.6,-3.6 0,-1.99 1.61,-3.6 3.6,-3.6 1.99,0 3.6,1.61 3.6,3.6 0,1.99 -1.61,3.6 -3.6,3.6 z"
         id="path1"
         style="fill:#f0ac15;fill-opacity:1" /></g></g><g
     style="fill:currentColor"
     id="g17"
     transform="matrix(1000000,0,0,1000000,-128980850,131968190)"><g
       id="g19"
       transform="matrix(0.61124232,0,0,0.68599337,3.8875768,3.1005487)"><g
         id="g20"
         transform="matrix(0.85350277,0,0,0.91417374,215.63678,-185.40196)"
         style="opacity:0.95;fill:#707070;fill-opacity:1;stroke:none;stroke-width:2.89909;stroke-dasharray:none;stroke-opacity:1"><path
           d="M 10,10 V 90 H 50 V 74.842323 L 23.858951,77.134624 27.774134,10 Z"
           id="path1-8"
           sodipodi:nodetypes="ccccccc"
           style="fill:#707070;fill-opacity:1;stroke:none;stroke-width:2.89909;stroke-dasharray:none;stroke-opacity:1" /><path
           d="m 150,10 v 80 h 18.21579 L 165,60 c 15,0 25,-10 25,-25 0,-15 -10,-25 -25,-25 z m 15,10 c 10,0 15,5 15,15 0,10 -5,15 -15,15 v 0 z"
           id="path3"
           sodipodi:nodetypes="ccccssccsscc"
           style="fill:#707070;fill-opacity:1;stroke:none;stroke-width:2.89909;stroke-dasharray:none;stroke-opacity:1" /><g
           id="g18"
           transform="matrix(1,0,0,1.1694085,0,-15.246766)"
           style="fill:#707070;fill-opacity:1;stroke:none;stroke-width:2.68089;stroke-dasharray:none;stroke-opacity:1"><path
             d="m 96.917646,52.802554 c 10.201334,4.423725 33.870944,0.22596 33.870944,15.22596 0,15 -15.68618,21.971486 -30.58888,21.971486 C 85.297002,90 70.394297,85 70.394297,75 l 9.935137,-5.390611 c 0,5 9.935136,13.390611 19.870276,13.390611 9.93513,0 16.65448,-3 16.65448,-13 0,-10 -22.531226,-11.668873 -32.857459,-15.788595 -16.328387,-9.101238 -1.09032,-7.810372 12.920915,-1.408851 z"
             id="path2-8"
             sodipodi:nodetypes="sssccssss"
             style="fill:#707070;fill-opacity:1;stroke:none;stroke-width:2.68089;stroke-dasharray:none;stroke-opacity:1" /><path
             d="M 102.43336,57.933053 C 97.016432,55.688064 87.884376,55.44361 80.625256,53.33605 74.434342,51.538626 69.605703,48.386077 69.605703,41.481729 c 0,-15 14.507128,-20 29.014257,-20 14.50712,0 29.01425,5 29.01425,15 h -14.17353 c 0,-5 -5.1693,-8 -14.84072,-8 -9.671419,0 -16.127045,3 -16.127045,13 0,4.370293 2.497532,7.591805 7.57069,8.608643 8.840607,1.771965 25.291915,2.94783 30.617285,5.99706 15.89497,9.101237 6.12324,11.94583 -18.24753,1.845621 z"
             id="path17"
             sodipodi:nodetypes="ssssccsssss"
             style="fill:#707070;fill-opacity:1;stroke:none;stroke-width:2.68089;stroke-dasharray:none;stroke-opacity:1" /></g></g></g></g></svg>
